# xmcd
#
# Track frame offsets: 
#        150
#        12073
#        21907
#        32305
#        43695
#        58613
#        67090
#        78765
#        95509
#        110944
#        120262
#        137913
#        149373
#        160068
#        175703
#
# Disc length: 2556 seconds
#
# Revision: 0
# Processed by: cddbd v1.5.2PL0 Copyright (c) Steve Scherf et al.
# Submitted via: ExactAudioCopy v1.0b1
#
DISCID=c009fa0f
DTITLE=Joana Amendoeira - A Flor da Pele
DYEAR=2009
DGENRE=Blues
TTITLE0=Saudade por cantar
TTITLE1=A beira do meu olhar
TTITLE2=Fonte
TTITLE3=Plantei um cravo a janela I
TTITLE4=Apelo
TTITLE5=Amor, o teu nome
TTITLE6=Aquele lapis de carvao
TTITLE7=Como se fosse uma flor
TTITLE8=Barco de sonhos
TTITLE9=Sem querer
TTITLE10=Se eu adivinhasse que sem ti
TTITLE11=Sopra o vento
TTITLE12=Lisboa amor e saudade
TTITLE13=Meu amor que te foste sem te ver
TTITLE14=Dgo adeus ao teu adeus
EXTD=
EXTT0=
EXTT1=
EXTT2=
EXTT3=
EXTT4=
EXTT5=
EXTT6=
EXTT7=
EXTT8=
EXTT9=
EXTT10=
EXTT11=
EXTT12=
EXTT13=
EXTT14=
PLAYORDER=
